<svg xmlns="http://www.w3.org/2000/svg" width="32" height="32" viewBox="0 0 32 32" shape-rendering="crispEdges">
  <!-- Finger -->
  <rect x="10" y="0" width="2" height="2" fill="#333"/>
  <rect x="12" y="0" width="2" height="2" fill="#333"/>
  <rect x="8" y="2" width="2" height="2" fill="#333"/>
  <rect x="10" y="2" width="4" height="8" fill="white"/>
  <rect x="14" y="2" width="2" height="2" fill="#333"/>
  <rect x="8" y="4" width="2" height="6" fill="#333"/>
  <rect x="14" y="4" width="2" height="6" fill="#333"/>
  <!-- Other fingers -->
  <rect x="14" y="10" width="2" height="2" fill="#333"/>
  <rect x="16" y="10" width="2" height="2" fill="#333"/>
  <rect x="16" y="12" width="2" height="6" fill="white"/>
  <rect x="18" y="10" width="2" height="2" fill="#333"/>
  <rect x="18" y="12" width="2" height="2" fill="#333"/>
  <rect x="18" y="14" width="2" height="4" fill="white"/>
  <rect x="20" y="12" width="2" height="2" fill="#333"/>
  <rect x="20" y="14" width="2" height="2" fill="#333"/>
  <rect x="20" y="16" width="2" height="2" fill="white"/>
  <rect x="22" y="14" width="2" height="2" fill="#333"/>
  <rect x="22" y="16" width="2" height="6" fill="#333"/>
  <!-- Palm -->
  <rect x="6" y="10" width="2" height="2" fill="#333"/>
  <rect x="8" y="10" width="2" height="2" fill="white"/>
  <rect x="10" y="10" width="4" height="2" fill="white"/>
  <rect x="14" y="12" width="2" height="6" fill="white"/>
  <rect x="4" y="12" width="2" height="8" fill="#333"/>
  <rect x="6" y="12" width="8" height="2" fill="white"/>
  <rect x="6" y="14" width="8" height="2" fill="white"/>
  <rect x="6" y="16" width="8" height="2" fill="white"/>
  <rect x="6" y="18" width="10" height="2" fill="white"/>
  <rect x="18" y="18" width="2" height="2" fill="white"/>
  <rect x="20" y="18" width="2" height="4" fill="white"/>
  <!-- Bottom -->
  <rect x="6" y="20" width="14" height="2" fill="white"/>
  <rect x="6" y="22" width="14" height="2" fill="white"/>
  <rect x="6" y="24" width="2" height="2" fill="#333"/>
  <rect x="8" y="24" width="10" height="2" fill="white"/>
  <rect x="18" y="24" width="2" height="2" fill="#333"/>
  <rect x="20" y="22" width="2" height="2" fill="#333"/>
  <rect x="8" y="26" width="2" height="2" fill="#333"/>
  <rect x="10" y="26" width="6" height="2" fill="white"/>
  <rect x="16" y="26" width="2" height="2" fill="#333"/>
  <rect x="10" y="28" width="2" height="2" fill="#333"/>
  <rect x="14" y="28" width="2" height="2" fill="#333"/>
</svg>
