<svg width="314" height="118" viewBox="0 0 314 118" fill="none" xmlns="http://www.w3.org/2000/svg">
<path d="M44.1079 33.7883C40.9914 34.7232 38.1606 36.0329 35.2741 37.1942C28.3547 39.9805 21.5504 43.0339 14.7757 46.1578C13.941 46.5437 13.0505 46.833 12.1675 47.0965C10.5611 47.5714 9.35898 46.9072 8.63179 45.5197C7.91574 44.1581 7.88606 42.7742 9.21057 41.676C9.53706 41.4052 9.91178 41.164 10.3013 40.9933C28.1396 33.1798 46.1596 25.819 64.469 19.1742C64.9327 19.0072 65.4039 18.8662 65.8751 18.7215C67.7969 18.1279 69.4146 18.8403 70.075 20.5692C70.7057 22.2276 69.9414 23.7858 68.0492 24.5167C63.2817 26.3495 58.4957 28.1452 53.7171 29.9557C52.0512 30.5865 50.7267 31.0873 50.3743 33.4395C48.9051 43.2268 47.2207 52.9881 45.3248 62.7012C43.4067 72.5404 41.5182 82.439 36.8064 91.4509C33.6417 97.5095 29.03 102.117 22.4445 104.384C11.1101 108.287 0.161607 100.403 0.00207238 88.4234C-0.0721299 82.6059 1.84971 77.5676 5.21849 72.9671C6.12005 71.7353 7.28873 70.9488 8.83956 71.3049C10.9543 71.791 11.6221 74.1135 10.2123 76.2431C8.41661 78.9552 7.15146 81.8305 6.6172 85.062C5.81953 89.8778 7.90832 95.0126 11.6481 97.1273C15.8776 99.5166 21.6988 98.8117 25.4831 95.5802C30.963 90.8981 33.445 84.5872 35.2852 77.9052C37.8823 68.463 39.3886 58.7945 41.214 49.1927C42.1749 44.1321 43.1173 39.0678 44.1079 33.792V33.7883Z" fill="#121828"/>
<path d="M242.647 95.8647C234.689 96.1058 226.723 96.1689 218.776 96.6326C208.506 97.2263 198.24 97.9275 188.004 99.0554C179.441 99.9977 170.882 100.992 162.349 102.161C151.026 103.712 139.773 105.708 128.542 107.848C114.592 110.508 100.768 113.729 86.9557 116.997C86.3583 117.138 85.7833 117.376 85.1859 117.528C83.3903 117.988 82.0027 117.242 81.5908 115.614C81.2347 114.207 82.0249 113.002 83.8058 112.545C89.2856 111.135 94.758 109.692 100.271 108.431C110.819 106.019 121.393 103.723 132.037 101.79C142.626 99.8679 153.218 97.946 163.896 96.5955C171.769 95.6012 179.66 94.7665 187.552 93.8983C197.228 92.8335 206.922 92.1026 216.646 91.5572C226.578 91.0007 236.507 90.9154 246.446 90.9339C247.963 90.9339 249.362 91.1899 249.607 93.0301C249.815 94.5735 248.746 95.7348 247.095 95.8016C245.615 95.8609 244.131 95.8127 242.647 95.8127V95.8535V95.8647Z" fill="#121828"/>
<path d="M183.044 50.4209C180.929 46.7812 180.759 43.4162 182.636 39.7803C183.296 38.5003 182.907 37.3427 181.92 36.4263C180.937 35.5136 179.746 35.6546 178.633 36.1629C176.681 37.0496 175.768 38.7859 175.145 40.7078C174.414 42.9524 174.897 45.4233 174.006 47.6123C171.676 53.3259 169.25 58.9986 165.113 63.7253C162.483 66.7268 159.589 69.4055 155.76 70.7782C152.654 71.895 149.876 70.6484 148.918 67.9103C148.614 67.0384 148.718 66.5116 149.668 66.0516C151.779 65.035 153.827 63.8886 155.871 62.7458C162.104 59.2621 166.452 54.3833 167.662 47.0818C168.441 42.3922 166.118 38.6969 161.663 38.1589C159.125 37.851 156.724 38.734 154.732 40.2514C146.997 46.1431 143.435 54.3536 142.222 63.7179C142.025 65.239 141.654 66.3706 140.567 67.402C138.909 68.9751 137.354 70.6558 135.447 71.9469C134.653 72.4849 133.774 72.9301 132.846 72.5183C131.83 72.0656 132.126 71.0194 132.193 70.2069C132.293 68.9863 132.512 67.7693 132.776 66.571C133.907 61.4065 135.514 56.3533 136.482 51.1443C137.58 45.2415 133.87 41.7058 128.068 43.2826C125.37 44.0172 123.267 45.7387 121.382 47.7384C119.442 49.7938 117.965 52.2017 116.173 54.9286C116.154 52.9771 116.11 51.4671 115.824 49.9831C115.086 46.1283 112.493 44.481 108.671 45.3677C103.959 46.4622 100.843 49.5193 98.1975 54.0308C98.4423 52.2611 98.7577 51.0479 98.7354 49.8458C98.7094 48.3209 97.9526 47.3044 96.2125 47.3229C94.2759 47.3415 93.2482 48.1725 92.8104 50.2687C92.0312 53.9937 91.2076 57.7149 90.5435 61.4621C89.7792 65.7659 88.451 69.8173 85.75 73.316C84.2771 75.2267 82.6892 77.0669 80.5076 78.1948C78.8084 79.0703 77.7659 78.4137 77.636 76.5029C77.4876 74.3362 77.7288 72.1955 78.1591 70.0733C79.2388 64.753 80.8824 59.596 82.6372 54.4686C82.9118 53.6672 83.3162 52.8695 83.075 51.9605C82.5334 49.9163 80.2739 49.3004 78.289 50.636C77.8623 50.9217 77.6546 51.6823 76.7901 51.0293C72.2897 47.6309 67.6039 48.2542 63.4152 51.315C53.9544 58.2306 49.825 67.9734 49.851 79.4747C49.8584 83.938 52.8116 87.2957 56.6887 88.008C59.9239 88.6016 62.5433 87.0359 64.9771 85.1327C67.4184 83.2294 69.2252 80.7362 71.2435 78.2207C71.5477 79.267 71.7518 80.1685 72.0671 81.0293C73.0243 83.6523 75.7216 85.4406 78.2408 85.1475C80.4594 84.8915 82.3516 83.9306 83.9655 82.402C84.8633 81.5524 85.7612 80.7028 86.8668 79.6528C86.7258 81.5895 86.8705 83.0624 88.8405 83.3666C90.5806 83.6338 91.8198 82.7062 92.5024 80.7028C92.6397 80.2984 92.7473 79.8791 92.8438 79.4636C94.2722 73.4495 96.079 67.5764 99.1509 62.1634C101.266 58.4384 103.566 54.8544 107.28 52.4763C108.894 51.4411 109.639 51.8344 109.825 53.7043C109.873 54.194 109.892 54.7023 109.821 55.1846C109.417 57.9227 109.038 60.6682 108.538 63.3877C107.629 68.3444 106.612 73.2826 105.707 78.2393C105.325 80.3318 106.46 81.5598 108.56 81.5227C110.589 81.4856 111.357 80.688 112.125 77.7607C114.407 69.0493 117.546 60.7313 123.289 53.6264C124.45 52.1869 125.652 50.7511 127.366 49.9163C128.817 49.2114 129.388 49.5749 129.526 51.1703C129.674 52.8584 129.31 54.4908 128.995 56.1159C128.038 61.0615 126.739 65.9365 125.942 70.9192C125.315 74.8223 126.795 79.6194 132.727 78.9219C133.328 78.8514 133.941 78.703 134.508 78.4804C137.985 77.1299 140.823 74.9261 143.194 71.8096C144.774 75.0523 147.264 76.9778 150.762 77.4416C155.315 78.0464 159.077 76.08 162.542 73.52C166.979 70.244 170.192 65.8475 173.045 61.195C174.514 58.7946 175.85 56.3125 177.293 53.7748C178.993 56.5129 180.354 59.3734 180.632 62.5269C181 66.7231 178.993 70.5222 173.112 68.9492C172.637 68.823 172.17 68.6598 171.706 68.4965C170.192 67.9734 169.035 68.478 168.23 69.7802C167.398 71.1233 167.91 72.292 168.949 73.238C170.556 74.7072 172.53 75.4307 174.67 75.5457C180.907 75.8759 186.186 70.8599 186.728 64.5007C187.17 59.314 185.53 54.6875 183.048 50.4097L183.044 50.4209ZM74.7495 58.0971C72.7832 65.3912 69.8225 72.1658 64.8361 77.9388C63.7045 79.2521 62.4691 80.4728 60.922 81.2927C58.247 82.7062 56.3214 81.6006 56.1062 78.5546C56.0617 77.9388 56.0988 77.3192 56.0988 76.7033C56.8816 69.1124 59.4639 62.3414 65.3815 57.2066C68.2977 54.6764 71.5366 54.3573 73.9964 56.1122C74.7199 56.6316 75.0204 57.0842 74.7495 58.0971ZM156.565 45.7832C156.929 45.4604 157.333 45.1599 157.76 44.9225C158.769 44.3659 159.993 43.9653 160.917 44.6405C161.911 45.3677 161.833 46.6217 161.592 47.8646C160.754 52.172 157.964 55.0585 154.639 57.5109C152.766 58.891 150.692 60.0004 148.28 61.4993C149.85 55.2106 151.979 49.8458 156.565 45.7832Z" fill="#121828"/>
<path d="M312.687 48.6072C311.458 47.932 310.071 48.4848 308.984 50.1024C308.639 50.6144 308.327 51.1486 307.986 51.6606C306.216 54.3022 304.157 56.6916 301.412 58.3426C296.369 61.37 292.021 59.9045 290.363 54.7252C290.014 53.6344 290.148 52.77 290.975 51.8647C292.552 50.1358 294.065 48.3327 295.464 46.4554C302.996 36.3527 308.257 25.1371 311.655 13.0272C312.275 10.8197 312.549 8.56769 312.453 6.26372C312.252 1.46283 308.093 -1.24926 303.638 0.568694C300.413 1.88207 298.258 4.40866 296.306 7.14672C291.509 13.8732 288.69 21.49 286.486 29.348C284.62 35.9966 283.432 42.7786 283.072 49.9354C283.785 52.0688 282.427 53.5417 280.828 54.9404C277.014 58.2758 273.274 61.8078 267.909 62.3495C264.006 62.7427 261.491 60.9211 260.886 57.4224C260.73 56.5209 260.956 55.9421 261.88 55.5488C263.75 54.7512 265.609 53.909 267.405 52.9592C274.061 49.4457 278.342 44.2256 278.858 36.4677C279.188 31.5036 275.823 26.6359 269.742 28.4205C266.729 29.3035 264.34 31.1289 262.407 33.5145C258.73 38.0594 256.597 43.35 255.261 48.9856C254.894 50.5328 255.043 52.373 254.241 53.6233C250.995 58.6802 246.691 62.6611 240.766 64.3195C236.381 65.5476 233.327 63.9263 232.363 60.3275C231.942 58.7618 232.562 57.7799 234.221 57.3816C244.287 54.9515 250.869 48.9894 251.841 39.4952C252.401 34.0339 248.053 30.0344 242.699 31.2996C238.948 32.1863 236.143 34.4457 233.824 37.3025C229.164 43.0421 226.627 49.6349 225.833 57.0329C224.842 66.2562 231.966 72.5783 240.874 70.1407C246.172 68.6938 250.49 65.7665 254.104 61.7188C254.928 60.7949 255.284 60.6688 255.933 61.9748C258.43 66.9908 263.435 69.1872 268.941 67.974C274.695 66.7051 279.325 63.5553 283.414 59.489C284.286 58.6208 284.631 58.4724 285.28 59.7487C287.762 64.6201 293.06 66.976 298.377 65.7257C303.226 64.5867 306.895 61.6594 310.023 57.9604C311.418 56.3131 312.687 54.5508 313.514 52.5325C314.278 50.67 313.963 49.2936 312.69 48.5924L312.687 48.6072ZM267.624 36.0077C268.833 34.7685 270.376 33.2993 272.098 34.2268C273.894 35.1915 273.215 37.3619 272.907 38.9646C272.321 42.0255 270.588 44.4593 268.106 46.3774C266.006 48.0025 263.724 49.2713 260.919 50.555C262.292 44.9787 263.784 39.9404 267.62 36.004L267.624 36.0077ZM241.612 37.8479C242.632 37.1022 243.842 36.4381 244.996 37.3433C246.049 38.1707 246.005 39.4729 245.767 40.7455C245.04 44.6597 242.695 47.42 239.467 49.4902C237.505 50.748 235.297 51.5197 232.737 52.1838C234.652 46.5481 236.778 41.3688 241.608 37.8479H241.612ZM299.783 12.9642C300.94 10.7901 302.135 8.6048 304.12 7.03542C304.721 6.56052 305.411 5.88899 306.279 6.33421C307.099 6.75716 306.806 7.64017 306.836 8.3488C306.914 10.4153 306.372 12.3817 305.723 14.3072C302.424 24.0982 298.429 33.5627 292.414 42.0515C291.71 43.0458 290.927 43.9881 289.832 45.4054C291.057 33.5553 294.459 22.9555 299.783 12.9605V12.9642Z" fill="#121828"/>
<path d="M226.274 9.2951C222.104 6.74625 217.422 5.77791 212.643 5.87809C205.409 6.0302 198.497 7.8296 192.108 11.2911C188.338 13.3317 184.836 15.7655 182.692 19.6612C181.657 21.5422 182.146 23.4047 183.864 24.4954C185.474 25.5231 186.821 25.2857 188.131 23.4047C191.373 18.7485 196.078 16.3443 201.394 14.5041C200.712 18.6854 200.036 22.6775 199.409 26.6733C198.471 32.6874 197.573 38.7089 196.645 44.723C195.696 50.8595 194.724 56.996 193.777 63.1325C193.358 65.8669 192.924 68.6012 192.609 71.3467C192.434 72.8827 193.225 74.0403 194.712 74.4113C196.315 74.812 197.655 74.274 198.333 72.6304C198.567 72.0628 198.782 71.4766 198.897 70.8755C200.114 64.6537 201.034 58.3836 201.862 52.1024C201.988 51.134 202.181 50.7222 203.22 50.6332C207.056 50.303 210.707 49.1714 214.228 47.6836C223.184 43.8993 230.207 38.1486 233.186 28.469C235.705 20.277 233.286 13.5803 226.271 9.28768L226.274 9.2951ZM226.46 27.534C224.293 34.0935 219.559 38.323 213.523 41.2985C210.785 42.649 207.835 43.25 204.897 43.9142C203.62 44.1998 203.186 43.7546 203.398 42.5006C204.199 37.7108 204.971 32.9174 205.783 28.1313C206.596 23.349 207.471 18.5778 208.251 13.788C208.369 13.0534 208.722 12.9421 209.293 12.7826C210.814 12.3597 212.369 12.5971 213.634 12.4895C215.819 12.4487 217.719 12.5229 219.578 13.0683C225.848 14.9085 228.701 20.7631 226.464 27.5377L226.46 27.534Z" fill="#121828"/>
</svg>
