<svg width="314" height="156" viewBox="0 0 314 156" fill="none" xmlns="http://www.w3.org/2000/svg">
<g clip-path="url(#clip0_23_15)">
<path d="M44.1058 33.7922C40.9893 34.7271 38.1585 36.0368 35.272 37.1981C28.3526 39.9844 21.5483 43.0378 14.7736 46.1617C13.9389 46.5476 13.0484 46.837 12.1654 47.1004C10.5589 47.5753 9.35687 46.9112 8.62969 45.5236C7.91364 44.162 7.88395 42.7781 9.20846 41.6799C9.53495 41.4091 9.90968 41.1679 10.2992 40.9972C28.1375 33.1837 46.1575 25.8229 64.4669 19.1781C64.9306 19.0111 65.4018 18.8701 65.873 18.7254C67.7948 18.1318 69.4124 18.8442 70.0728 20.5731C70.7036 22.2315 69.9393 23.7897 68.0471 24.5206C63.2796 26.3534 58.4936 28.1491 53.715 29.9597C52.0491 30.5904 50.7246 31.0912 50.3722 33.4434C48.903 43.2307 47.2186 52.992 45.3227 62.7051C43.4046 72.5443 41.5161 82.4429 36.8043 91.4548C33.6396 97.5134 29.0279 102.121 22.4424 104.388C11.108 108.291 0.159501 100.407 -3.33376e-05 88.4273C-0.0742356 82.6099 1.8476 77.5715 5.21638 72.971C6.11794 71.7392 7.28663 70.9527 8.83745 71.3089C10.9522 71.7949 11.62 74.1174 10.2102 76.247C8.4145 78.9591 7.14935 81.8344 6.6151 85.066C5.81742 89.8817 7.90622 95.0165 11.646 97.1312C15.8755 99.5205 21.6967 98.8156 25.481 95.5841C30.9609 90.902 33.4429 84.5911 35.2831 77.9091C37.8802 68.4669 39.3865 58.7984 41.2119 49.1966C42.1728 44.136 43.1152 39.0717 44.1058 33.7959V33.7922Z" fill="white"/>
<path d="M244.645 133.869C236.687 134.11 228.721 134.173 220.774 134.637C210.504 135.23 200.238 135.931 190.002 137.059C181.439 138.002 172.88 138.996 164.347 140.165C153.023 141.715 141.771 143.711 130.54 145.852C116.59 148.512 102.766 151.733 88.9536 155.001C88.3562 155.142 87.7812 155.38 87.1838 155.532C85.3881 155.992 84.0006 155.246 83.5887 153.617C83.2326 152.211 84.0228 151.006 85.8037 150.549C91.2835 149.139 96.7559 147.696 102.269 146.435C112.817 144.023 123.391 141.727 134.035 139.794C144.624 137.872 155.216 135.95 165.894 134.599C173.767 133.605 181.658 132.77 189.55 131.902C199.226 130.837 208.92 130.107 218.644 129.561C228.576 129.005 238.504 128.919 248.444 128.938C249.961 128.938 251.36 129.194 251.605 131.034C251.813 132.577 250.744 133.739 249.093 133.805C247.613 133.865 246.129 133.817 244.645 133.817V133.857V133.869Z" fill="white"/>
<path d="M160.473 103.349C159.898 108.398 159.39 113.043 158.83 117.677C158.63 119.332 156.778 120.779 155.461 120.341C153.984 119.851 153.847 118.638 153.999 117.321C154.534 112.743 155.068 108.164 155.606 103.586C155.806 101.876 156.062 100.173 156.203 98.4588C156.34 96.7744 156.641 95.2866 158.574 94.7301C160.518 94.1699 161.468 95.4907 162.325 96.741C165.033 100.707 167.649 104.74 170.298 108.747C170.461 108.992 170.506 109.337 171.021 109.422C171.652 104.822 172.305 100.236 172.891 95.6391C173.014 94.6782 173.244 93.8397 173.967 93.1719C174.794 92.4113 175.804 92.4039 176.75 92.7081C177.718 93.0198 177.855 93.9213 177.826 94.8451C177.711 98.4848 176.842 102.024 176.449 105.627C176.1 108.803 175.577 111.956 175.191 115.128C175.106 115.818 174.98 116.471 174.683 117.08C173.544 119.425 171.218 119.621 169.797 117.473C167.074 113.362 164.391 109.226 161.687 105.104C161.36 104.606 161.011 104.124 160.473 103.341V103.349Z" fill="white"/>
<path d="M142.817 111.77C141.641 111.859 140.724 111.926 139.812 111.993C138.699 112.075 137.76 111.659 137.5 110.576C137.226 109.44 137.905 108.372 138.884 108.012C141.329 107.118 143.926 106.751 146.512 107.133C147.655 107.303 148.163 108.405 148.041 109.567C147.84 111.459 147.588 113.347 147.269 115.225C147.024 116.657 146.26 117.859 145.299 118.931C141.934 122.704 135.701 123.999 131.475 121.855C128.414 120.304 127.038 117.577 126.641 114.427C125.721 107.136 130.113 98.1358 138.361 96.1175C141.099 95.4459 143.726 95.5016 146.238 96.8409C147.722 97.6312 148.137 98.8852 147.458 100.225C146.709 101.705 145.533 102.072 143.974 101.315C140.854 99.8053 138.22 100.191 135.69 102.61C132.306 105.845 130.959 109.745 132.147 114.349C132.662 116.341 133.935 117.829 136.031 118.115C138.291 118.423 140.294 117.536 141.863 115.915C142.943 114.798 142.301 113.199 142.817 111.77Z" fill="white"/>
<path d="M236.219 86.643C236.527 86.643 236.839 86.6578 237.147 86.643C238.519 86.5576 239.562 87.1178 239.629 88.5166C239.688 89.8299 239.035 90.9689 237.547 91.1544C235.043 91.4624 232.528 91.6664 230.02 91.9224C229.162 92.0115 228.313 92.1525 227.452 92.2155C226.829 92.2601 226.562 92.657 226.488 93.1616C226.291 94.501 226.161 95.8515 226.005 97.1982C225.901 98.1035 226.428 98.2148 227.148 98.1295C228.921 97.9217 230.695 97.7288 232.464 97.5321C234.245 97.3355 235.51 98.1703 235.6 99.5987C235.689 100.994 234.516 102.181 232.91 102.303C231.006 102.448 229.103 102.604 227.196 102.7C225.942 102.763 225.081 103.179 225.011 104.581C224.985 105.134 224.911 105.687 224.87 106.24C224.647 109.223 224.811 109.312 227.916 108.87C230.231 108.544 232.565 108.373 234.895 108.162C236.063 108.054 237.247 108.124 237.451 109.609C237.644 111.018 237.124 112.12 235.715 112.732C234.423 113.293 233.036 113.122 231.708 113.293C228.354 113.727 224.963 113.879 221.586 114.157C219.932 114.294 219.075 113.575 219.275 111.898C219.806 107.442 220.395 102.993 220.959 98.5413C221.267 96.1 221.661 93.6699 221.857 91.2212C222.084 88.3719 222.314 88.0342 225.189 87.73C228.862 87.3405 232.535 86.962 236.212 86.5762C236.212 86.5984 236.219 86.617 236.219 86.6392V86.643Z" fill="white"/>
<path d="M68.1436 128.99C64.938 129.061 64.6635 128.897 64.9751 126.182C65.5651 121.054 66.3293 115.945 67.0083 110.829C67.2198 109.245 67.4201 107.657 67.5537 106.065C67.6835 104.503 68.4738 103.836 70.0357 103.687C73.5232 103.361 77.0033 102.945 80.4686 102.459C81.8747 102.262 83.0879 102.441 83.355 103.939C83.611 105.375 82.7651 106.507 81.3071 106.755C79.1923 107.119 77.0367 107.271 74.8997 107.494C73.9314 107.594 72.5772 107.449 72.2618 108.369C71.7535 109.85 71.6942 111.508 71.62 113.1C71.5977 113.563 72.3508 113.382 72.7367 113.348C74.2059 113.218 75.6825 113.103 77.1295 112.833C78.5542 112.562 79.7414 112.866 80.0122 114.324C80.2645 115.682 79.6635 116.951 78.0978 117.199C76.1611 117.511 74.1985 117.73 72.2395 117.815C71.2156 117.86 70.7963 118.26 70.6813 119.177C70.518 120.457 70.3696 121.737 70.199 123.017C70.0914 123.844 70.3251 124.052 71.2156 123.911C73.4639 123.559 75.7345 123.366 77.9939 123.087C80.2311 122.809 81.1364 123.221 81.3293 124.657C81.5742 126.467 80.5057 127.684 78.4428 127.907C74.8329 128.296 71.223 128.667 68.1436 128.99Z" fill="white"/>
<path d="M100.792 99.9889C102.239 99.8999 103.701 100.063 105.052 100.779C106.61 101.603 107.114 102.857 106.521 104.252C105.801 105.94 104.543 105.925 103.156 105.298C101.149 104.389 99.1563 104.111 97.1157 105.15C96.1956 105.617 95.4981 106.215 95.4054 107.365C95.3052 108.626 96.1548 109.142 97.0489 109.561C98.5515 110.266 100.121 110.834 101.635 111.513C107.181 113.987 107.011 120.235 103.171 123.507C99.557 126.587 95.346 127.199 90.8531 125.615C90.0851 125.344 89.4358 124.865 88.909 124.238C88.0111 123.166 88.1335 122.075 88.9386 121.033C89.7215 120.02 90.6935 119.742 91.8622 120.409C93.9992 121.63 96.2253 122.072 98.5849 121.107C99.8204 120.602 100.685 119.682 100.778 118.358C100.867 117.081 99.8352 116.402 98.8261 115.898C97.5609 115.263 96.2513 114.707 94.9453 114.162C92.3371 113.071 90.252 111.475 90.278 108.374C90.3077 105.127 92.018 102.772 94.8414 101.28C96.6631 100.319 98.6554 99.8813 100.789 99.9926L100.792 99.9889Z" fill="white"/>
<path d="M194.788 113.505C195.304 109.565 195.838 105.295 196.424 101.032C196.829 98.1118 197.304 95.1993 197.749 92.2832C197.994 90.6767 199.155 89.7418 200.709 90.0163C202.245 90.2909 202.535 91.2852 202.32 92.7544C201.526 98.1674 200.858 103.595 200.105 109.012C199.826 111.027 200.056 111.283 202.053 111.082C204.687 110.819 207.325 110.622 209.959 110.392C211.22 110.281 212.356 110.392 212.634 111.95C212.89 113.383 211.947 114.785 210.43 115.126C208.987 115.449 207.492 115.338 206.019 115.534C202.973 115.939 199.893 116.102 196.821 116.321C195.2 116.436 194.74 115.839 194.784 113.509L194.788 113.505Z" fill="white"/>
<path d="M113.117 121.496C113.819 116.565 114.527 111.634 115.221 106.7C115.436 105.179 115.6 103.646 115.807 102.121C115.889 101.513 115.963 100.893 116.141 100.311C116.575 98.8899 117.707 98.3742 119.024 98.6191C120.297 98.8565 120.797 99.8805 120.63 101.149C119.848 107.189 119.076 113.233 118.219 119.262C118.082 120.227 118.122 121.21 117.792 122.178C117.262 123.733 116.249 124.371 114.694 124.171C113.066 123.959 113.095 122.731 113.114 121.492L113.117 121.496Z" fill="white"/>
<path d="M183.042 50.4248C180.927 46.7851 180.756 43.4201 182.634 39.7842C183.294 38.5042 182.905 37.3466 181.918 36.4302C180.935 35.5175 179.744 35.6585 178.631 36.1668C176.679 37.0535 175.766 38.7898 175.143 40.7117C174.412 42.9563 174.894 45.4272 174.004 47.6162C171.674 53.3298 169.248 59.0025 165.111 63.7292C162.48 66.7307 159.587 69.4094 155.758 70.7821C152.652 71.8989 149.873 70.6523 148.916 67.9142C148.612 67.0424 148.716 66.5155 149.666 66.0555C151.777 65.0389 153.825 63.8925 155.869 62.7498C162.102 59.266 166.45 54.3872 167.66 47.0857C168.439 42.3961 166.116 38.7008 161.661 38.1628C159.123 37.8549 156.722 38.7379 154.73 40.2553C146.994 46.147 143.433 54.3575 142.22 63.7218C142.023 65.2429 141.652 66.3745 140.565 67.4059C138.906 68.979 137.352 70.6597 135.445 71.9508C134.651 72.4888 133.772 72.934 132.844 72.5222C131.828 72.0696 132.124 71.0233 132.191 70.2108C132.291 68.9902 132.51 67.7732 132.774 66.5749C133.905 61.4104 135.512 56.3572 136.48 51.1482C137.578 45.2454 133.868 41.7097 128.065 43.2865C125.368 44.0211 123.265 45.7426 121.38 47.7423C119.439 49.7977 117.963 52.2056 116.171 54.9325C116.152 52.981 116.108 51.471 115.822 49.987C115.084 46.1322 112.49 44.4849 108.669 45.3716C103.957 46.4661 100.841 49.5232 98.1953 54.0347C98.4402 52.265 98.7556 51.0518 98.7333 49.8497C98.7073 48.3248 97.9505 47.3083 96.2104 47.3268C94.2738 47.3454 93.2461 48.1764 92.8083 50.2726C92.0291 53.9976 91.2055 57.7188 90.5414 61.4661C89.7771 65.7698 88.4489 69.8212 85.7479 73.3199C84.275 75.2306 82.6871 77.0708 80.5055 78.1987C78.8063 79.0742 77.7638 78.4176 77.6339 76.5069C77.4855 74.3401 77.7267 72.1994 78.157 70.0772C79.2367 64.7569 80.8803 59.5999 82.6351 54.4725C82.9097 53.6711 83.3141 52.8734 83.0729 51.9645C82.5313 49.9202 80.2718 49.3043 78.2869 50.6399C77.8602 50.9256 77.6525 51.6862 76.788 51.0332C72.2876 47.6348 67.6018 48.2581 63.413 51.3189C53.9523 58.2345 49.8229 67.9773 49.8489 79.4786C49.8563 83.9419 52.8095 87.2996 56.6866 88.0119C59.9218 88.6055 62.5412 87.0399 64.975 85.1366C67.4163 83.2333 69.2231 80.7401 71.2414 78.2246C71.5456 79.2709 71.7497 80.1724 72.065 81.0332C73.0222 83.6562 75.7195 85.4445 78.2387 85.1514C80.4573 84.8954 82.3495 83.9345 83.9634 82.4059C84.8612 81.5563 85.7591 80.7067 86.8647 79.6567C86.7237 81.5934 86.8684 83.0663 88.8384 83.3706C90.5785 83.6377 91.8177 82.7102 92.5003 80.7067C92.6376 80.3023 92.7452 79.8831 92.8417 79.4675C94.27 73.4534 96.0769 67.5803 99.1488 62.1673C101.264 58.4423 103.564 54.8583 107.278 52.4802C108.892 51.445 109.637 51.8383 109.823 53.7082C109.871 54.1979 109.89 54.7062 109.819 55.1885C109.415 57.9266 109.036 60.6721 108.535 63.3916C107.626 68.3483 106.61 73.2865 105.705 78.2432C105.322 80.3357 106.458 81.5637 108.558 81.5266C110.587 81.4895 111.355 80.6919 112.123 77.7646C114.405 69.0532 117.544 60.7352 123.287 53.6303C124.448 52.1908 125.65 50.755 127.364 49.9202C128.815 49.2153 129.386 49.5789 129.524 51.1742C129.672 52.8623 129.308 54.4948 128.993 56.1198C128.036 61.0654 126.737 65.9405 125.94 70.9231C125.313 74.8262 126.793 79.6233 132.725 78.9258C133.326 78.8553 133.939 78.7069 134.506 78.4843C137.983 77.1339 140.821 74.93 143.192 71.8136C144.772 75.0562 147.262 76.9817 150.76 77.4455C155.313 78.0503 159.075 76.0839 162.54 73.5239C166.977 70.2479 170.19 65.8514 173.043 61.1989C174.512 58.7985 175.848 56.3164 177.291 53.7787C178.99 56.5168 180.352 59.3773 180.63 62.5309C180.998 66.727 178.99 70.5261 173.11 68.9531C172.635 68.8269 172.168 68.6637 171.704 68.5004C170.19 67.9773 169.033 68.4819 168.227 69.7841C167.396 71.1272 167.908 72.2959 168.947 73.242C170.554 74.7112 172.527 75.4346 174.668 75.5496C180.905 75.8798 186.184 70.8638 186.726 64.5046C187.168 59.3179 185.528 54.6914 183.046 50.4136L183.042 50.4248ZM74.7474 58.101C72.7811 65.3951 69.8204 72.1697 64.834 77.9427C63.7024 79.256 62.467 80.4767 60.9198 81.2966C58.2449 82.7102 56.3193 81.6045 56.1041 78.5585C56.0596 77.9427 56.0967 77.3231 56.0967 76.7072C56.8795 69.1163 59.4618 62.3453 65.3794 57.2106C68.2956 54.6803 71.5345 54.3612 73.9943 56.1161C74.7178 56.6355 75.0183 57.0881 74.7474 58.101ZM156.563 45.7871C156.926 45.4643 157.331 45.1638 157.757 44.9264C158.767 44.3699 159.991 43.9692 160.915 44.6444C161.909 45.3716 161.831 46.6256 161.59 47.8685C160.752 52.1759 157.962 55.0624 154.637 57.5148C152.764 58.8949 150.69 60.0043 148.278 61.5032C149.848 55.2145 151.977 49.8497 156.563 45.7871Z" fill="white"/>
<path d="M312.684 48.6111C311.456 47.9359 310.069 48.4887 308.982 50.1063C308.637 50.6183 308.325 51.1526 307.984 51.6645C306.214 54.3061 304.155 56.6955 301.409 58.3465C296.367 61.3739 292.019 59.9084 290.361 54.7291C290.012 53.6383 290.146 52.7739 290.973 51.8686C292.55 50.1397 294.063 48.3366 295.462 46.4593C302.994 36.3566 308.255 25.141 311.653 13.0312C312.273 10.8236 312.547 8.5716 312.451 6.26762C312.25 1.46674 308.091 -1.24536 303.635 0.5726C300.411 1.88598 298.256 4.41257 296.304 7.15063C291.507 13.8771 288.687 21.4939 286.484 29.3519C284.617 36.0005 283.43 42.7825 283.07 49.9393C283.783 52.0727 282.425 53.5456 280.826 54.9443C277.012 58.2797 273.272 61.8117 267.907 62.3534C264.004 62.7467 261.489 60.925 260.884 57.4264C260.728 56.5248 260.954 55.946 261.878 55.5527C263.748 54.7551 265.607 53.9129 267.403 52.9631C274.058 49.4496 278.34 44.2295 278.856 36.4716C279.186 31.5075 275.821 26.6398 269.74 28.4244C266.727 29.3074 264.338 31.1328 262.405 33.5184C258.728 38.0633 256.595 43.3539 255.259 48.9896C254.892 50.5367 255.04 52.3769 254.239 53.6272C250.993 58.6841 246.689 62.665 240.764 64.3234C236.379 65.5515 233.325 63.9302 232.36 60.3314C231.94 58.7657 232.56 57.7838 234.219 57.3855C244.285 54.9554 250.867 48.9933 251.839 39.4991C252.399 34.0378 248.051 30.0383 242.697 31.3035C238.946 32.1902 236.141 34.4496 233.822 37.3064C229.162 43.046 226.625 49.6388 225.831 57.0368C224.84 66.2601 231.964 72.5822 240.871 70.1446C246.17 68.6977 250.488 65.7704 254.102 61.7227C254.925 60.7988 255.282 60.6727 255.931 61.9787C258.428 66.9947 263.433 69.1911 268.939 67.9779C274.693 66.7091 279.323 63.5592 283.412 59.4929C284.284 58.6247 284.629 58.4763 285.278 59.7526C287.76 64.624 293.058 66.9799 298.375 65.7296C303.224 64.5906 306.893 61.6633 310.021 57.9643C311.416 56.317 312.684 54.5547 313.512 52.5364C314.276 50.674 313.961 49.2975 312.688 48.5963L312.684 48.6111ZM267.621 36.0116C268.831 34.7724 270.374 33.3032 272.096 34.2307C273.892 35.1954 273.213 37.3658 272.905 38.9685C272.318 42.0294 270.586 44.4632 268.104 46.3814C266.004 48.0064 263.722 49.2752 260.917 50.5589C262.29 44.9826 263.781 39.9443 267.618 36.0079L267.621 36.0116ZM241.61 37.8518C242.63 37.1061 243.84 36.442 244.993 37.3472C246.047 38.1746 246.003 39.4768 245.765 40.7494C245.038 44.6636 242.693 47.4239 239.465 49.4941C237.503 50.7519 235.295 51.5236 232.735 52.1877C234.65 46.552 236.776 41.3727 241.606 37.8518H241.61ZM299.781 12.9681C300.938 10.794 302.133 8.6087 304.118 7.03932C304.719 6.56443 305.409 5.8929 306.277 6.33811C307.097 6.76107 306.804 7.64407 306.834 8.3527C306.912 10.4192 306.37 12.3856 305.721 14.3111C302.422 24.1021 298.426 33.5666 292.412 42.0554C291.707 43.0497 290.925 43.992 289.83 45.4093C291.054 33.5592 294.457 22.9594 299.781 12.9644V12.9681Z" fill="white"/>
<path d="M226.272 9.299C222.102 6.75016 217.42 5.78182 212.641 5.88199C205.407 6.03411 198.495 7.83351 192.106 11.295C188.336 13.3356 184.834 15.7694 182.69 19.6651C181.654 21.5461 182.144 23.4086 183.862 24.4993C185.472 25.527 186.819 25.2896 188.129 23.4086C191.371 18.7524 196.076 16.3482 201.392 14.508C200.71 18.6893 200.034 22.6814 199.407 26.6772C198.469 32.6913 197.571 38.7128 196.643 44.7269C195.693 50.8634 194.721 56.9999 193.775 63.1364C193.356 65.8708 192.922 68.6051 192.607 71.3506C192.432 72.8866 193.223 74.0442 194.71 74.4152C196.313 74.8159 197.652 74.2779 198.331 72.6343C198.565 72.0667 198.78 71.4805 198.895 70.8794C200.112 64.6576 201.032 58.3875 201.86 52.1063C201.986 51.1379 202.179 50.7261 203.218 50.6371C207.054 50.3069 210.705 49.1753 214.225 47.6875C223.182 43.9032 230.205 38.1525 233.184 28.4729C235.703 20.2809 233.284 13.5842 226.268 9.29158L226.272 9.299ZM226.458 27.5379C224.291 34.0974 219.557 38.3269 213.521 41.3024C210.782 42.6529 207.833 43.254 204.895 43.9181C203.618 44.2037 203.184 43.7585 203.396 42.5045C204.197 37.7148 204.969 32.9213 205.781 28.1352C206.594 23.3529 207.469 18.5817 208.248 13.792C208.367 13.0573 208.72 12.946 209.291 12.7865C210.812 12.3636 212.367 12.601 213.632 12.4934C215.817 12.4526 217.717 12.5268 219.575 13.0722C225.846 14.9124 228.699 20.767 226.461 27.5416L226.458 27.5379Z" fill="white"/>
<path d="M289.274 82.3429C286.191 81.9273 283.015 82.0683 279.869 82.443C278.225 82.636 277.62 83.3891 277.483 84.8843C277.361 86.2273 277.142 87.5667 276.964 88.9061C276.173 94.8088 275.353 100.712 274.608 106.622C274.396 108.284 275.127 108.97 276.841 108.981C279.312 109 281.742 108.555 284.172 108.188C292.513 106.922 297.9 101.086 298.037 93.2246C298.145 87.1586 295.08 83.122 289.277 82.3429H289.274ZM292.962 95.2578C291.641 101.609 286.209 103.721 281.182 103.78C279.95 103.795 280.106 103.001 280.191 102.296C280.585 99.0643 281.015 95.8365 281.445 92.6087C281.59 91.5143 281.75 90.4235 281.935 89.3327C282.377 86.7505 282.384 86.7505 285.215 86.7356C286.517 86.6318 288.001 86.8061 289.4 87.2662C292.364 88.2382 293.733 91.5662 292.965 95.2578H292.962Z" fill="white"/>
<path d="M48.8881 105.563C46.1426 105.593 43.5159 105.849 40.904 106.287C39.6871 106.491 39.1342 107.14 38.971 108.368C38.5889 111.229 38.0769 114.071 37.665 116.927C37.1011 120.816 36.5223 124.704 36.0697 128.603C35.8026 130.926 36.808 131.761 39.1231 131.471C40.9522 131.245 42.7924 131.104 44.6215 130.863C51.0919 130.006 55.711 126.67 58.0447 120.504C60.9312 112.869 57.7553 104.829 48.8918 105.563H48.8881ZM44.0427 126.366C41.3047 126.474 41.2898 126.474 41.6237 123.732C42.1209 119.651 42.6589 115.573 43.13 111.488C43.2191 110.732 43.5567 110.372 44.2431 110.275C46.3875 109.971 48.5653 109.819 50.6764 110.257C52.9025 110.72 54.201 112.917 54.2121 115.692C54.2344 121.231 49.5522 126.147 44.0427 126.366Z" fill="white"/>
<path d="M267.607 107.138C265.892 100.081 263.767 93.1431 261.529 86.2385C260.735 83.7936 257.96 83.2779 256.213 85.196C255.727 85.7303 255.374 86.4129 255.059 87.0733C252.866 91.6924 250.688 96.3189 248.529 100.957C247.357 103.468 246.184 105.984 245.101 108.536C244.63 109.646 244.411 110.944 245.702 111.664C247.015 112.399 248.232 111.842 249.171 110.792C249.572 110.343 249.943 109.783 250.099 109.212C251.089 105.602 253.185 103.691 257.118 104.437C257.177 104.448 257.241 104.429 257.304 104.422C260.076 104.048 261.872 105.231 262.691 107.969C263.08 109.286 263.763 110.18 265.273 110.121C267.154 110.15 268.067 109.022 267.61 107.145L267.607 107.138ZM259.704 99.6321C257.938 99.7322 256.168 99.8547 254.124 99.9882C255.46 96.9162 256.673 94.1337 258.064 90.943C258.866 93.8331 259.541 96.33 260.257 98.8158C260.424 99.3909 260.283 99.6024 259.704 99.6321Z" fill="white"/>
</g>
<defs>
<clipPath id="clip0_23_15">
<rect width="313.92" height="155.669" fill="white"/>
</clipPath>
</defs>
</svg>
